<svg xmlns="http://www.w3.org/2000/svg" xmlns:xlink="http://www.w3.org/1999/xlink" viewBox="0 0 176 117"><defs><style>.cls-1{fill:none;}.cls-2,.cls-9{fill:url(#linear-gradient);}.cls-2{clip-rule:evenodd;}.cls-3,.cls-8{isolation:isolate;}.cls-4{clip-path:url(#clip-path);}.cls-5{clip-path:url(#clip-path-2);}.cls-6{fill:#e7e247;}.cls-7,.cls-8{mix-blend-mode:multiply;}.cls-7{fill:url(#linear-gradient-2);}.cls-8{opacity:0.4;}.cls-9{fill-rule:evenodd;}.cls-10{clip-path:url(#clip-path-3);}</style><linearGradient id="linear-gradient" x1="77.31" y1="65.67" x2="88.04" y2="72.38" gradientUnits="userSpaceOnUse"><stop offset="0.18" stop-color="#fff" stop-opacity="0"/><stop offset="1"/></linearGradient><clipPath id="clip-path"><path id="SVGID" class="cls-1" d="M42,23.13a1.85,1.85,0,0,0-.35-.15A1.51,1.51,0,0,0,42,23H27.59L69.4,89.22,76.71,77.8,42.29,23.29Zm75.82-9.84A18.94,18.94,0,0,1,133,5h25.58c9.77,0,15,9.63,9.78,17.86L115,106.14a12,12,0,0,1-20.33-.06l-18-28.51ZM104.93,89.22,147.32,23H133.25l-.3.14a2,2,0,0,0-.33.22,1.55,1.55,0,0,0,.19-.26L97.76,77.86ZM79.51,106.14a12,12,0,0,1-20.33-.06L6.62,22.83C1.42,14.59,6.71,5,16.45,5H42a18.85,18.85,0,0,1,15.15,8.35L97.76,77.63Z"/></clipPath><clipPath id="clip-path-2"><rect id="SVGID-2" data-name="SVGID" class="cls-1" x="4" y="5" width="292" height="108"/></clipPath><linearGradient id="linear-gradient-2" x1="99.38" y1="91.32" x2="89.08" y2="84.37" gradientUnits="userSpaceOnUse"><stop offset="0.38" stop-color="#fff" stop-opacity="0"/><stop offset="1"/></linearGradient><clipPath id="clip-path-3"><polygon id="SVGID-3" data-name="SVGID" class="cls-2" points="74.62 74.49 85.7 58.42 87.28 60.92 76.71 77.8 74.62 74.49"/></clipPath></defs><title>Asset 2</title><g class="cls-3"><g id="Layer_2" data-name="Layer 2"><g id="Layer_1-2" data-name="Layer 1"><g class="cls-4"><g class="cls-5"><rect class="cls-6" width="176" height="117"/></g></g><polygon class="cls-7" points="97.76 77.63 87.17 94.25 88.75 96.75 98.83 79.75 97.76 77.63"/><g class="cls-8"><polygon id="SVGID-4" data-name="SVGID" class="cls-9" points="74.62 74.49 85.7 58.42 87.28 60.92 76.71 77.8 74.62 74.49"/></g></g></g></g></svg>